<svg width="200" height="50" viewBox="0 0 200 50" fill="none" xmlns="http://www.w3.org/2000/svg">
  <path d="M50 25C50 38.8071 38.8071 50 25 50C11.1929 50 0 38.8071 0 25C0 11.1929 11.1929 0 25 0C38.8071 0 50 11.1929 50 25Z" fill="#FF0000"/>
  <path d="M100 25C100 38.8071 88.8071 50 75 50C61.1929 50 50 38.8071 50 25C50 11.1929 61.1929 0 75 0C88.8071 0 100 11.1929 100 25Z" fill="#FF0000"/>
  <path d="M150 25C150 38.8071 138.807 50 125 50C111.193 50 100 38.8071 100 25C100 11.1929 111.193 0 125 0C138.807 0 150 11.1929 150 25Z" fill="#FF0000"/>
  <path d="M200 25C200 38.8071 188.807 50 175 50C161.193 50 150 38.8071 150 25C150 11.1929 161.193 0 175 0C188.807 0 200 11.1929 200 25Z" fill="#FF0000"/>
</svg>